<svg xmlns="http://www.w3.org/2000/svg" viewBox="2457.024 -1788.995 243.018 271.995">
  <defs>
    <style>
      .cls-1 {
        fill: #a1a1a1;
        opacity: 0.295;
      }
    </style>
  </defs>
  <path id="Path_84" data-name="Path 84" class="cls-1" d="M12.511,67.079c-.089-.7-.444-.348-.8.116C12.422,68.586,11.444,66.732,12.511,67.079ZM227.529,257.647c-1.156-.927-2.756-2.317-4.355-3.36v-.463a5.046,5.046,0,0,1,2.667,1.738l.711-.927c-5.067-3.591-8.622-11.585-13.866-12.975,3.378,4.4,7.555,6.719,8.533,11.353-.267.116-.978-1.39-1.778-1.043-.444-1.043-1.422-1.969-2.222-1.158,1.422,3.36,7.733,6.6,9.778,9.152.8-.463,1.6-.116,2.311-1.274C229.307,257.3,228.151,258.343,227.529,257.647Zm-1.422,6.835c-1.867-1.274-2.578-3.128-4.178-3.823C222.729,261.818,224.507,265.409,226.107,264.482Zm11.822-4.4c-.978.7.889,2.78,1.244,2.317C238.373,261.7,238.729,260.891,237.929,260.08ZM12.955,70.092c.978-.7.533-1.506.711-2.433A9.108,9.108,0,0,0,12.955,70.092Zm224.085,193.7c-.978-1.39-1.867-2.433-2.844-2.549C235.618,262.281,235.707,264.251,237.04,263.787Zm-5.955-1.39c-.711-.463-1.422-1.158-2.133-1.158C229.4,262.513,230.374,262.861,231.085,262.4Zm3.733,4.055c1.156-.116,1.6,2.549,2.4.927C236.418,267.61,235.885,264.83,234.818,266.452Zm-27.2-20.621c1.244.579,2.4,4.055,3.644,3.244C210.73,247.105,208.6,245.715,207.618,245.831ZM15.533,45.184c-.178,1.043.8.232,1.422-.463C17.666,42.52,16.333,43.563,15.533,45.184ZM69.4,49.934V49.7h-.178v.116ZM25.755,55.727c-.889,1.506-1.067-.348-2.4,3.244,1.067,1.506,1.956,5.792,5.155,3.244-.978.232,1.156-3.823.622-4.17-.711,1.274-1.067,2.549-1.778,3.128.622-2.664-1.156-.348-.711-2.549.533-.579.889-1.043,1.244-1.39.267.232.622.232,1.511-1.043a.442.442,0,0,1-.356.116,13.58,13.58,0,0,0,1.867-2.085c-.978.348-1.067-3.475-2.667-1.622-.444,1.854,1.244.7.267,3.244-.178-.116-.356-.116-.8.7-.267.116-.533.348-.622-.232-.8,1.043-1.067,3.012-1.689,3.128C25.044,58.739,26.022,56.422,25.755,55.727ZM15.266,49.355c-.089-.463.178-2.664-.978-.116C13.933,50.282,14.111,51.672,15.266,49.355ZM46.555,35.569h-.8l-.178.463.8.116ZM31.444,56.422c.178,1.506,2.222,0,.978,2.78.444,0,1.067-.927,1.956-2.78C34.822,54.221,32.866,54.221,31.444,56.422ZM17.311,48.428c-2.667,7.067.622,7.3,2.667,4.981C22.289,46,17.666,50.977,17.311,48.428ZM190.374,200.187v.232c0-.116.089-.232.089-.348h-.178Zm20.8-45.528.444-.7-.533-.463-.356.579Zm-22.311,40.315c-1.956-1.622-3.822-3.36-5.867-5.329.711,5.1,3.556,10.774,7.378,10.426-.267-1.969-.533-4.055-.8-6.14ZM35.977,59.9c1.422-4.055-1.244-2.78-2.4-1.274C33.666,60.94,35.355,58.159,35.977,59.9ZM56.51,45.532l-.178,1.158.178-1.158.267-1.274ZM22.822,53.294c-.533-.463-.889-1.39-1.778,0C19.622,57.233,20.689,57.58,22.822,53.294ZM244.329,203.779c-1.244-.232-2.4-.811-3.644-1.158.711-2.2,1.333-4.286,2.044-6.6,1.067.232,2.222.463,3.555.7,1.244-3.012,2.222-5.213,2.933-6.951-.711-1.39-.711-3.939-2.133-3.823-5.778.7-7.289-5.329-10.844-8.341a108.345,108.345,0,0,1-9.867-9.847c-2.844-3.128-5.778-6.14-9.422-8.225a10.716,10.716,0,0,1-2.222-2.317c-4.889,1.39-6.578-2.317-8.978-4.634-.711-.7-1.422-1.506-2.222-2.2.178-.232.356-.348.533-.579-2.044-3.823-5.867-4.981-7.822-9.268a9.416,9.416,0,0,0-.356-3.128l.089.116.267-.463c.089.116.178.116.178.232,1.689,4.055,4.355,6.487,8.267,8.457,0,0,0-.116.089-.116a19.217,19.217,0,0,0,2.4,1.622c0,.116.089.232.267.116,2.756,1.622,5.867,3.128,8.444,4.634,3.822,3.012,12.8,11.585,24.266,21.316,0,0-2.578-3.707-5.155-7.53s-5.067-7.646-4.889-7.993c3.733.7-.978-5.445-2.756-8.225a44.4,44.4,0,0,0-4.178-5.445c-1.333-1.506-2.667-2.9-4-4.518a69.03,69.03,0,0,1-5.067-6.835c-1.6-2.317-3.111-4.75-4.711-7.067-1.511-2.317-3.022-4.75-4.622-6.951a74.534,74.534,0,0,0-4.978-6.256c-1.333-1.506-2.667-2.9-4.089-4.4.622.116,1.156.463,2.133-.927-.533-.232-3.2-.7-2.044,0,.089,0-.178.579-.267.811-.356-.348-.622-.7-.978-1.043.089-.232,0-.463-.178-.348h.089c-.089,0-.178.116-.178.116-.889-.927-1.778-1.738-2.578-2.664h.267c.267-.927-.444-1.39-1.067-.811l-1.333-1.39a1.568,1.568,0,0,0,.889-.811,3.315,3.315,0,0,1-.978-.7c.178-.348.267-.579.356-.463a22.139,22.139,0,0,0,2.133,1.39c.089.116-.178.579-.267.811.8-.927.8-.116,1.156.116a30.345,30.345,0,0,1,4.444,3.244c.711.579,1.422,1.158,2.044,1.738s1.244,1.274,1.778,1.854h.178l.533.348a1.938,1.938,0,0,0,1.6.927c.089,0,0,.232-.089.348-1.867,1.506-2.044-1.506-3.289-1.274.089.116.356.116,0,.579-.178-1.506-.889-3.591-2.844-1.622,4.178,2.085,7.378,8.8,11.555,11.237-.089-.463-.711-2.78-.978-.927-.089-4.286-3.822-3.244-3.822-7.414a1.327,1.327,0,0,0,.356.348c.533.232.711,1.158,1.156,1.506a46.17,46.17,0,0,0,4.8,4.518c0,1.043,1.156.927,1.778,1.043.178.116-.444.927-.178,1.043,1.067.348,1.778,1.506,3.022,2.085-.178-1.622-1.156-2.664-2.4-2.433,0-.232.356-.811.267-.927-.711,1.043-.178-.232-.267-.348a8.677,8.677,0,0,1-3.555-3.244c.711-.927.8-.116,1.156-.232-.444,2.085,1.778-.348,1.689,1.39,1.067-.927.978.7,2.044,0,.089.116-.178.463,0,.579.978-.463,1.6.579,1.689,1.969-.533.232-.533-.579-1.156.232.356,0,.533.463.889.463.444-.7.089-.579.622-1.274.533,1.506,2.044,1.506,2.489,2.9.089.232-.089.811,0,1.043.178.348.8.232,1.067.7a6.858,6.858,0,0,1,.8,1.622,2.276,2.276,0,0,1,.978-.463c-.356.463-.444.463-.356.579.622-.348.711-.348.622.7-.356.463-.267-.116-.622.463.089.7.622.232,1.333-.348.622-1.622-.267-1.158-.533-1.854-.444-1.043-.711-2.78-1.511-3.128.178-2.2-2.044-.579-1.511-3.128-.178-.116-.444.232-.711.116a2.384,2.384,0,0,0,.356-1.39c-.444.579-.178.811-.533,1.043-.533.348.356-.927.267-1.158-.533-.579-.978-1.274-1.511-1.969-.711-1.043-2.667-.7-2.489-2.317a33.692,33.692,0,0,0-3.555-3.591c0-1.274-.978-1.738-1.6-1.506-1.156-1.043-2.222-2.085-3.289-3.128-.533-.579-.533-1.622-1.156-2.2-2.311-1.854-4.978-4.055-7.733-6.024a2.107,2.107,0,0,0-.978-1.274c.889.232,1.333,1.158,2.311.927,1.333,1.854,3.556,2.549,5.067,4.4a5.894,5.894,0,0,0,1.689,1.622c.267.116.356.348.622.579a.44.44,0,0,0,.356.232c.089,1.506,1.333,2.2,1.955,3.36l.711-.927c0-.116-.089-.116-.089-.232.8.811,1.689,1.506,2.489,2.2.267.232.8.348.889.7a5.9,5.9,0,0,1-.178.7c.178.232.622.116.8.348.622.7,1.244,1.506,1.956,2.2a9.867,9.867,0,0,1,1.956,2.9c.089.116.444-.116.533,0,.178.116.089.7.178.811,3.2,3.244,6.4,7.183,10.133,10.426.356,0-.356.7,0,.7a3.021,3.021,0,0,0,1.244-.579c-.444-2.085-2.667-1.506-2.4-4.286-2.133.348-1.956-3.244-3.644-3.475,0-.116-.089-.232-.178-.232.089-.116.178-.116.178-.232,4.089,3.475,7.111,9.152,13.155,10.426.622-.579-1.156-1.738-.8-2.433A4.689,4.689,0,0,0,232.6,120.6a5.562,5.562,0,0,0-1.156-.7l-.533-.232c-1.333-3.591-2.667-3.128-3.822-7.182-.622-.348-1.156-.579-1.778-.927,0-.232,0-.348-.089-.463-.089.116-.178.232-.267.232-.089-.116-.178-.116-.267-.232a1.318,1.318,0,0,0-.089-.579.282.282,0,0,0,.267-.116c1.422.348,4.267-2.549,4.267-2.549-3.022-1.39-3.911-4.981-4.711-9.268-.889-.579-2.222-1.274-2.489-2.549-1.511-1.506-2.4-3.823-3.467-5.908-1.067-2.2-2.222-4.17-4-5.329-.178.579-.711,1.043-1.067,1.043l.178-.463-.8.579c-.267-.116.533-1.158.8-1.043-1.067-1.39-2.4-2.2-3.289-3.823-.889,1.158-.622-.579-1.511.7.089-.348.178-.348.444-.579-1.156-.232-1.244-.232-.889-2.78a21.831,21.831,0,0,0-4-5.792c-1.511-1.738-2.933-3.36-4.355-5.213a63.356,63.356,0,0,0-4.978-4.4c-1.067-.811-2.133-1.738-3.2-2.549a41.847,41.847,0,0,1-4.089-4.4,11.586,11.586,0,0,0,.356-2.317c-.356-.579-2.311.348-1.511-1.622a13.086,13.086,0,0,0,2.222.579c-.711.348-.356,1.158-.622,1.854,2.222-4.17-1.067-4.17-2.311-4.634-.356,1.158,1.067.348.178,1.854-1.689-.579-2.133-2.9-3.644-3.591-.178-.463.711-1.506.444-1.969-.444-.7-2.133.7-1.956-.927a5.582,5.582,0,0,1,.356-.811c2.4-1.622,3.378,2.9,5.6,2.085,2.044,1.854,4.089,4.17,6.311,6.487a20.074,20.074,0,0,0,7.378,5.1c.178,1.043,1.067,3.128,2.311,1.854-1.778-.7-2.489-4.4-3.911-6.14-1.6-2.085-4.889-1.274-6.4-3.36-.533-.579.267-1.738,0-2.433-8.889-6.487-17.066-12.164-25.066-18.42-2.133-1.622-4.444-2.9-6.489-4.286a50.728,50.728,0,0,1-4.089-3.823,5.65,5.65,0,0,0-4.711-1.854c-.711-.116-1.156-1.969-2.133-.116-.089,2.317,3.289,1.969,3.022,4.75-.089,0-.178.116-.178.116l.089-.232a2.663,2.663,0,0,1-1.867-.579c-.444-.463-.978-.927-1.511-.811v.116a2.326,2.326,0,0,0-1.689.232A2.95,2.95,0,0,0,147,21.2a5.754,5.754,0,0,0-1.511,1.043,1.908,1.908,0,0,1-.533-.463,1.418,1.418,0,0,1,.089-.348c-.533-.811-.533-2.78-1.778-1.39L143.62,19a2.72,2.72,0,0,1-1.422.7,4.936,4.936,0,0,1-.711-.463c0-.116-.089-.232-.089-.348l-.178.232a4.935,4.935,0,0,1-.711-.463,3.074,3.074,0,0,0-1.244-.811c-1.422-.927-2.844-1.738-4.267-2.664q-2.4-1.564-4.8-3.475c-.711,1.158-1.244,1.274-1.778,1.158h0c-.178-.348-.356-.348-.533-.232-.089,0-.178-.116-.267-.116h0a.282.282,0,0,1-.267-.116c-.711-.463-1.422-.7-2.311.579a3.921,3.921,0,0,0-.356,1.622c-.089,0-.089.116-.178.232l.178-.232v1.043a.451.451,0,0,1-.089.232l.089-.116a1.319,1.319,0,0,0,.089.579v.116h.089a9.171,9.171,0,0,1-.178,4.055c-1.6,1.506-1.689-2.085-2.222-3.591a10.019,10.019,0,0,0-.356,4.518c-.622,0-1.244.348-1.956,1.274.889,1.622,3.467,3.128,4.178,4.866-1.333.348-2.311-1.506-3.733-2.085-.356,1.043.089,1.043-.444,2.2-1.067-.579-2.222-1.158-3.289-1.622-3.378-1.622-6.578-3.475-8.622-7.3-1.511-.811-3.022-1.39-4.444-2.085-1.867-2.549-3.733-5.445-6.133-7.182a11.58,11.58,0,0,0-5.244-1.622,8.053,8.053,0,0,0-.889-.811c-1.244-.927-2.933-1.043-4.267-1.854-1.778-1.043-2.578-4.981-4.889-2.78.444-2.085-1.067-1.969-1.867-.7.178,1.274,1.689.116,1.422,2.2a7.445,7.445,0,0,0-1.6-.116c-2.311-.7-5.422-.579-8.8,1.969-.8,1.738.178.811-.622,2.549-.622,1.506-.8.811-1.333,1.506.444.348.978-.232.8,1.158-1.067,1.506-1.778.927-3.022,3.36a8.238,8.238,0,0,1,2.311-1.158,5.636,5.636,0,0,1-.622.927c-.356.811-.622,1.39-.889,2.085a5.686,5.686,0,0,0-2.044,1.622c0,.927,1.067-.348,1.156.579-.356.927-.622,1.738-.978,2.664-.444-.116-.889.116-1.422.7a5.006,5.006,0,0,0,1.244-.348c-.356.927-.711,2.085-1.333,3.823A13,13,0,0,0,64.688,27a7.184,7.184,0,0,0-2.933,1.622c-.8,3.128-2.133,4.866-3.378,7.067l-.533-.348c-.444-.348-.356-1.738-.622-2.317-.889-1.39-2.044-1.274-3.022-1.506-.089,0-.267.348-.533.811l.267.232c1.6,1.39,2.578,4.055,4,5.329.267.116.533.348.8.463L59,38.7l.089-.116c1.422.811,2.844,1.738,4.355,2.549.978.579,1.867,1.043,2.844,1.506l.089.116a10.992,10.992,0,0,0,1.867,4.981c-.622,0-1.422.579-2.578,1.738.978,0,1.778.116,2.578.116a16.7,16.7,0,0,0-1.067,2.549c-.533-.232-.889-1.506-2.044,1.043.622-.463.978-.116,1.333.463-1.956,0-3.289-2.549-5.067-2.433-.622-1.969-1.511-3.244-3.289-2.664.267.348.533.811.8,1.158-3.022-2.433-6.044-4.866-9.244-6.951A24.873,24.873,0,0,0,46.021,40.9c-.089-.116-.089-.232-.267-.116-.8-.348-1.511-.579-2.311-.927-2.222-.811-4.533-1.506-6.578-2.317C32.688,35.106,23,27.923,10.911,19c0,0,2.844,3.475,5.6,7.067,1.422,1.738,2.844,3.591,3.822,4.981l1.156,1.506c-.178,0-.356.116-.533.116.089.232.178.579.267.811-2.044.579,2.489,5.561,4.355,7.762a34.906,34.906,0,0,0,4.711,4.866c1.511,1.274,3.022,2.433,4.533,3.939l3.2,3.128a6.655,6.655,0,0,0-.267.811,10.143,10.143,0,0,0,.978,1.969c.356.463.889.927,1.244,1.39l-.089.116.089-.116a1.628,1.628,0,0,1,.267.463l.267.7a8.406,8.406,0,0,0-2.133.463H38.2c.533-1.969-.711-1.158-1.6.232v.232c-.978.232-1.956.463-3.111.7a1.713,1.713,0,0,0,.444.463c-.089.116-.089.232-.178.348a2.007,2.007,0,0,1,.178.7c-.8,0-.978-1.274-2.4-.116a4.286,4.286,0,0,0,.889.927H30.555c.444-2.085-1.067-1.39-2.133.116.089,1.274.622,2.664,1.6,1.043a4.7,4.7,0,0,0,.622.232l-.622,1.969a3.456,3.456,0,0,0-2.133.116c-.889.348-1.6-.116-2.667-.116-.089,3.244,3.467,1.274,4.533,2.664-1.511.579-2.311-.927-4.355.811-.356,1.854,1.156,1.158,1.956,1.506s1.511.811,2.311,1.158c-.178,1.043-.444,1.969-.622,3.012-.711-.232-1.333-.579-2.222-.811a4.822,4.822,0,0,0-.356,1.043c-1.244-1.043-2.489-1.969-3.733-3.128a2.451,2.451,0,0,1-3.022,0h0a1.437,1.437,0,0,0-1.067-.7,1.907,1.907,0,0,1-.533-.463H18.2c-.178-.116-.267-.232-.444-.232-1.422-1.043-2.933-2.085-4.267-1.158a3.073,3.073,0,0,0-.356,1.738.282.282,0,0,0-.267.116l.267-.116c.089.348.178.811.267,1.274,0,.116-.089.116-.178.232H13.4c.089.232.178.579.267.811l-.089.116h.089c.533,1.622,1.156,3.244.533,4.75-2.578.7-3.644-3.939-4.978-6.14a7.129,7.129,0,0,0,.444,5.329,4.037,4.037,0,0,0-3.467,0c2.133,2.664,7.378,6.6,9.244,9.384-2.4-.7-4.8-3.707-7.644-5.561-.444,1.043.533,1.39-.444,2.664a19.811,19.811,0,0,1,2.222,3.475c.267,1.854-1.511.463-1.333,1.854.711,1.39,1.333-.811,2.311-.7-.178,0,.444,1.622.533,1.622.178.116.978-.348,1.333-.232.089,0,.178.116.267.116a3.077,3.077,0,0,1-.622,1.158,1.92,1.92,0,0,1,.533,1.158c.533-.116.8-.811,1.067-1.622A4.8,4.8,0,0,0,15.089,92.1c-1.422,1.738,1.067,2.317-.178,3.244-1.422-1.274-2.4-4.055-4.178-2.433,3.555,3.128,6.933,9.384,10.4,10.31-.178-.116,0-.7.267-.579l1.333.579a6.151,6.151,0,0,1-.089,1.274l-.178.232c0,.116.089.116.089.232a.513.513,0,0,1-.089.348c.089,0,.089,0,.178-.116a4.565,4.565,0,0,0,1.422,1.622c-.444.116-.889-.232-1.244.463.889,1.969,2.933,1.969,4.533,3.128-.089,0-.089,0-.178.116-.089,0-.089-.116-.178-.116-.178-.232-.267.116-.444.348-.178.116-.356.116-.533.232v-.116c-3.644-2.664-7.2-7.762-9.422-9.615,2.133,4.4,5.689,7.762,9.511,10.89-.8.232-.622-1.043-1.956.232l.533.7a23.26,23.26,0,0,1-2.578.463c-.089,1.506,1.156.927,1.956,1.274-.178.463-.356,1.158-.533,1.622-.178,0-.622.116-.711-.116-.356-.7-1.067-.7-2.222,0-.8.348-1.244.116-2.044.232-.622,2.9,2.489.579,3.111,1.622-1.244.7-1.6-.463-3.555,1.274-.533,1.622.711.927,1.244,1.043l1.6.7-1.067,2.78c-.444-.116-.978-.348-1.511-.463-.622,1.274-1.067,2.2-1.422,2.9.267.7.267,1.738.889,1.738,2.578,0,3.111,2.664,4.622,4.17a25.2,25.2,0,0,1,2.222,2.433c-.178,0-.356-.116-.533,0-.622-.463-1.244-.811-1.867-.463-.356,1.158-.444-.232-1.244.811-.356.232,1.156,2.433.889,2.78.267.811.533,1.622.889,2.433a15.56,15.56,0,0,0,1.156,2.2,37.038,37.038,0,0,0,2.667,4.055c1.867,2.549,3.911,4.75,5.333,7.3.178.348.622-.348.889-.116,3.644,3.128,7.644,8.341,11.378,9.384-.356,1.158.356.7.711,1.158.178.116.533-.811.711-.463.356,0,0,.7.267.811,1.156-.927,1.067,1.158,1.956.579-.444,1.969.889.927,1.511.7.178.348-.356.7-.267,1.158.178,0,.444-.927.622-.927,1.956,1.506,3.822,2.085,5.867,3.823.178.232-.267,1.043,0,1.043.267.116.533-1.158.8-.7a30.459,30.459,0,0,0,3.111,1.969c-1.156,3.244-2.756,5.1-4.178,7.53,1.6,2.549,4.622,2.085,6.044,5.1a8.428,8.428,0,0,0,.356,3.012h-.533c-1.244-2.9-3.289-4.055-6.4-4.17a11.805,11.805,0,0,1-.444,1.158c-.711-1.506-2.311-1.506-3.467-2.317-.089.348-.267.811-.356,1.158,1.333,1.274,2.578,1.969,3.822,1.158-.267,1.622,1.867-.811,1.689.927a1.077,1.077,0,0,0-.533.232v.463a.549.549,0,0,0-.356.116c-.978-.348-1.956-.579-2.933-.927.089-.348.178-.579-.089-.348-.089.116-.089.232-.178.348-1.867-.463-3.644-.927-5.511-1.274-.533.232,0-1.274-.533-.927-.267.232-.533.579-.8.811a.935.935,0,0,0-1.511-.232c0,1.043.356,1.39.8,1.274l-.089.116a4.207,4.207,0,0,0,1.6,1.043c.711.7,1.6,1.158,2.311.348a3.617,3.617,0,0,1,1.867.811,2.452,2.452,0,0,0-.622.811c.8.348,1.156,1.274,1.778.811,0,.116.089.232.089.348,1.422-.927,2.667-.463,3.822.348a2.974,2.974,0,0,0-3.822.811c-.8-.463-1.689-1.39-2.4.232,1.156,1.506,2.756,0,4.355.579a3.623,3.623,0,0,1,1.333,1.158c-1.778-.116-3.467-1.043-5.333.232a2.026,2.026,0,0,1,.267-.811c-1.333,1.274-1.422-2.664-2.933.463l-.533,1.274c-.089-.579.178-1.622.089-2.085-.356.811-.889-.116-1.244,1.158a4.189,4.189,0,0,1,.267-1.158c-.356-.463-1.333,1.39-1.6.811l.267-.463a1.169,1.169,0,0,0,.8-.579c-.622-.7-.978-2.2-1.778-1.274-1.511-2.317-3.378-3.823-5.333-1.738-.622.348.178-1.854-.089-1.738-2.133,1.854-3.467-1.969-5.6.116-.267-.348-.622-.7-.8-.232.178.232.267.463.444.7l-.178.232c-1.511.7-2.756,4.981-2.756,4.981,3.378-.7,5.867,1.969,8.355,5.213,1.067,0,2.578-.116,3.289.927,4,.927,7.111,6.024,11.378,6.256a1.817,1.817,0,0,1,.622-1.506l-.089.463.533-.927c.356,0-.178,1.39-.444,1.39,1.6.7,3.022.927,4.444,1.969.533-1.506.8.348,1.333-1.39,0,.348-.089.348-.267.7,1.244-.348,1.333-.348,1.778,2.2a25.536,25.536,0,0,0,5.778,3.823,38.271,38.271,0,0,1,5.778,3.36,45.865,45.865,0,0,0,6.133,2.549c1.333.579,2.667,1.043,3.911,1.622A35.1,35.1,0,0,1,86.2,222.43c-.178.927.178,1.506.089,2.433.444.463,2.4-.811,1.867,1.274-.8,0-1.6-.116-2.311-.116.622-.463.178-1.158.267-1.969-1.422,4.634,1.867,3.939,3.2,4.171.178-1.274-1.067,0-.533-1.854,1.867.232,2.756,2.433,4.355,2.78.267.463-.444,1.738-.178,2.085.622.7,2.133-1.159,2.222.579-.178.348-.089.579-.178.927-2.222,1.969-3.911-2.2-6.044-.927-4.711-2.664-9.955-7.53-16-7.414-.356-.927-1.778-2.664-2.667-.927,1.867,0,3.555,3.244,5.244,4.518,2.044,1.506,5.155-.232,7.022,1.274.622.348.089,1.738.444,2.317a145.1,145.1,0,0,1,27.822,14.365,39.112,39.112,0,0,0,3.555,2.085c1.156.7,2.311,1.39,3.378,2.085a39.546,39.546,0,0,1,4.355,3.939,6.315,6.315,0,0,0,4.889,2.2c.711.232,1.156,2.085,2.222.348.178-2.433-3.378-2.317-3.2-5.1.089,0,.178,0,.178-.116l-.089.232a2.915,2.915,0,0,1,1.956.811c.533.463.978,1.043,1.6,1.043h0a2.348,2.348,0,0,0,1.778,0,3.511,3.511,0,0,0,.978,2.2,5.859,5.859,0,0,0,1.6-.811c.178.116.356.348.533.463,0,.116-.089.348-.089.463.533.811.444,2.9,1.778,1.622l-.444.927a4.194,4.194,0,0,1,1.6-.463,8.218,8.218,0,0,0,.711.579,3.3,3.3,0,0,1,.089.463l.178-.232.8.7a3.782,3.782,0,0,0,1.244,1.043c1.422,1.159,2.844,2.433,4.355,3.707a38.343,38.343,0,0,1,4.711,4.75c.8-.927,1.422-.927,2.044-.579h0q.133.521.533.348c.089.116.178.116.267.232h0c.089,0,.178.116.267.116.711.7,1.422,1.158,2.578.116a3.63,3.63,0,0,0,.622-1.506c.089,0,.089-.116.178-.232l-.178.116a4.137,4.137,0,0,0,.089-1.043l.178-.232-.178.116v-.579l.089-.116h-.089a8.643,8.643,0,0,1,.711-4.055c1.867-1.043,1.6,2.665,1.956,4.286a6.529,6.529,0,0,0,.8-2.433c.622.927,1.511.7,2.133.811a2.632,2.632,0,0,0,.444-.927l-.178-.116a8.2,8.2,0,0,1-1.244-1.854,3.323,3.323,0,0,0,1.156-.579c-.889-1.854-3.467-4.286-4.178-6.372,1.511.116,2.4,2.317,3.911,3.359.533-.927-.089-1.043.889-2.317a19.916,19.916,0,0,1-.8-2.549c.267-1.506,1.156-.7,1.333-1.854-.178-1.043-1.067.927-1.689,1.043a7.263,7.263,0,0,0,0-1.39c-.089-.116-.711.463-.978.463-.089,0-.089,0-.178-.116.178-.348.444-.811.622-1.158-.178-.232-.089-.579-.089-.927-.444.232-.711.811-1.067,1.622a1.885,1.885,0,0,0-.711-.811,2.071,2.071,0,0,0,.444-2.085s0-.116.089-.116c.356.348.8.7,1.156,1.043a1.326,1.326,0,0,0,.356.348,53.466,53.466,0,0,0,5.422,4.171,10.593,10.593,0,0,0,2.756,1.158c0,.116.089.232.178.116,2.222.579,4.711.811,6.844,1.39,3.111,1.506,10.4,6.14,19.822,10.658,0,0-.533-.579-1.333-1.506s-1.867-2.085-2.933-3.36c-2.133-2.433-4.178-4.981-4-5.445,1.422-.347,1.244-1.39.622-2.549.089,0,.178-.116.178-.116a.439.439,0,0,1-.356-.232c-.089-.232-.267-.348-.356-.579a20.026,20.026,0,0,1,.267-2.085c.889,1.274,2.4,1.506,3.822,1.969a5.193,5.193,0,0,0,4.089-.927c1.422-.811,2.756-1.622,4.444-2.664a15.11,15.11,0,0,1-1.244-.927c1.244-1.274,1.422.811,2.844-1.158a7.715,7.715,0,0,0-.889-.579c1.067-.463,1.956-.811,2.933-1.159-.444-1.506-1.778-.7-2.844-.811v-1.854c.178,0,.711-.348.889-.116.622.579,1.511.348,2.578-.579l.267.348.622-.811c.444-.116.889-.232,1.422-.348,0-.116,0-.116-.089-.232,1.778,1.506,3.467,3.012,5.244,4.4.889.348-.178,1.274.711,1.622h1.333a3.369,3.369,0,0,0,2.489,1.969,2.007,2.007,0,0,0-1.067-2.2h.178a16.564,16.564,0,0,0-2.489-2.9c-.978-1.506-2.489-3.128-3.644-3.012a21.01,21.01,0,0,1-3.022-3.012,2.231,2.231,0,0,0,1.156-.232c-1.244-1.274-1.689-2.664-2.755-2.78-.089-.116-.089-.348-.178-.463-.356-.116-.711-.116-.978-.232h.8c.089-.348.089-.579.178-.927h.178c1.244,1.39,2.578,3.36,3.911,2.433a9.1,9.1,0,0,0-3.911-3.36c.089-.232.089-.579.178-.811a10,10,0,0,0,3.378,1.506c0,.348-.267.463-.533.7,2.311,0,2.133,4.4,4.711,2.78l1.067-.811c.089.811-.444,1.622-.356,2.2.711-.463,1.422,1.043,2.222.232-.089.579-.444.579-.622.927.533.927,2.311-.116,2.667.927l-.444.232a2.434,2.434,0,0,0-1.422-.348c.978,1.506,1.422,3.475,2.756,3.36,2.133,4.17,5.067,7.878,8.533,7.878.978.232-.533,1.854-.089,1.969,3.733.463,5.422,6.024,9.155,6.024.444.7.889,1.39,1.333,1.158-.267-.463-.444-.811-.622-1.158h.356c2.578.927,5.244-2.2,5.244-2.2-5.778-3.012-9.333-8.573-13.066-14.944-1.778-1.274-4.267-2.664-5.422-4.75-3.733-3.244-6.933-7.762-10.222-11.816,2.756,2.317,8.622,4.634,10.311,5.445,1.778.811,3.289-1.39,6.844-3.244l-1.689-2.2c2.844-2.317,2.044,2.085,5.511-1.738a15.977,15.977,0,0,1-1.244-1.506c2.133-.579,3.822-1.043,5.778-1.738,0-3.36-2.844-1.854-4.622-2.433.267-1.158.622-2.664.889-3.939.356,0,1.333-.463,1.689,0,.889,1.39,2.489,1.274,5.067-.463,1.689-1.043,2.844-.7,4.622-1.043.711-4.518-2.222-3.244-4.622-2.664a2.228,2.228,0,0,1-.622-1.158c1.6-.232,2.844.232,5.867-3.128C248.418,201.925,245.573,204.01,244.329,203.779Zm-35.2-96.848c-.089-.116-.178-.116-.267-.232C208.952,106.7,209.041,106.815,209.13,106.931Zm15.111,4.17Zm-2.489-1.738c-.444-.348-.978-.811-1.422-1.158C221.04,108.205,221.4,108.669,221.752,109.364Zm-1.333-2.9c.444,0-.178.811-.533,1.274-.444-.463-.978-.927-1.422-1.39A2.3,2.3,0,0,0,220.418,106.467Zm-1.689,4.634-.089-.116a2.8,2.8,0,0,1-.8-1.274c-.178.116-.267.116-.444.232-.178-.116-.267-.232-.444-.348a.653.653,0,0,1,.178-.348,1,1,0,0,1,.978.348A7.02,7.02,0,0,1,218.729,111.1Zm-4.178-12.743.889-.811a16.651,16.651,0,0,0-.8,1.854c.622-.579.711.463,1.422-.348a4.8,4.8,0,0,1-.622.811c.089.579,1.6-.579,1.6.116l-.356.348a1.18,1.18,0,0,0-.889,0c.267.927,0,2.433.978,1.969a9.2,9.2,0,0,0,.889,3.128,38.787,38.787,0,0,1-5.422-8.109C213.485,97.2,212.418,100.212,214.552,98.358ZM212.6,96.736a.831.831,0,0,1-.356.463c-.089-.116-.178-.348-.267-.463Zm-2.933,2.2c.089,0,.178,0,.178.116a16.525,16.525,0,0,1,3.644,3.128H213.4c1.067,2.549,3.2,3.475,2.755,6.487l-.089-.116a3.134,3.134,0,0,1-1.156-.927,8.875,8.875,0,0,0-1.333-2.317c-.178-.348-.444-.7-.622-1.043-.267-.927-.8-1.738-1.511-1.506-.444-.463-.8-.811-1.244-1.274-.089-.116-.089-.232-.178-.232.178,0,.444-.232.8-.463-.533-.7-.444-1.622-1.156-1.506Zm-.622-5.908a3.04,3.04,0,0,1-.444.7c-.089,0-.089-.116-.178-.116C208.6,93.493,208.774,93.261,209.041,93.029Zm-4.267-4.286a7.281,7.281,0,0,1-.356.7h0c-.089-.116-.267-.232-.356-.348-.089-.579-.356-.579-.622-.463a8.215,8.215,0,0,0-.711-.579c0-.116,0-.116.089-.232A7.14,7.14,0,0,0,204.774,88.743ZM202.73,87.7c-.089,0-.089.116-.089.116a8.1,8.1,0,0,0-1.156-.927,1.455,1.455,0,0,1-.178-.579A6.4,6.4,0,0,0,202.73,87.7Zm-2.578-4.866c-.089.116-.089.232-.178.348-.356-.116-.8-.116-1.067-.232C199.441,82.487,199.885,82.951,200.152,82.835Zm-.978-.811a3.644,3.644,0,0,1-.267.927c-.089,0-.178-.116-.267-.232a.675.675,0,0,1-.178-.463C198.819,82.024,199.263,81.56,199.174,82.024ZM199,81.1a6.419,6.419,0,0,1-.622.927c0-.116-.089-.348-.089-.463Zm-1.6-1.738c-.089-.116-.178-.232-.267-.232C197.308,78.9,197.4,78.9,197.4,79.359ZM193.93,75.3c.356.116.089.7-.178,1.158-.089-.116-.178-.232-.267-.232l.178-.348-.178.348c-.089-.116-.089-.116-.178-.116A2.354,2.354,0,0,0,193.93,75.3ZM192.6,72.872l-.178.7h-.089a3.282,3.282,0,0,1-.089-.927C192.33,72.64,192.419,72.756,192.6,72.872ZM21.933,123.034a.25.25,0,0,1-.178.116v-.116a.25.25,0,0,1,.178-.116Zm.178.811h-.178l.178-.232Zm3.022-9.963.533.116-.178.232-.533-.116Zm.444,22.474c-.089-.116-.089-.348-.178-.463.178.232.444.463.622.7A.608.608,0,0,1,25.577,136.356Zm1.956-20.389-.178.232.178-.348ZM31,73.8s0-.116-.089-.116a.25.25,0,0,1,.178-.116.417.417,0,0,0,.089.232A.105.105,0,0,0,31,73.8Zm.711.811h-.178l.178-.232Zm.178-7.878c-.178,0-.8,0-.978-.232a1.713,1.713,0,0,0-.444-.463,5.141,5.141,0,0,0,.622-1.274l-.267-.348,1.333.348C32.066,65.342,31.977,66.037,31.888,66.732Zm.889-3.012.178-.232.711.232-.089.116Zm1.511,72.057c-.267-.348-.444-.811-.711-1.158l.356-.579c.267.348.444.811.711,1.158ZM36.6,66.5l.178-.348v.232Zm2.222,73.215s-.089,0-.089-.116l-.089-.232.267-.348Zm1.956,1.39h0a3.876,3.876,0,0,1-.889-.579v-.579c.356.348.711.811,1.067,1.158Zm.533.463v-.116c.267.232.444.463.711.7A4.988,4.988,0,0,1,41.31,141.569Zm2.844-63.484a3.294,3.294,0,0,1,.089.463c-.089-.116-.267-.232-.356-.348A.282.282,0,0,1,44.155,78.085Zm.711,67.655a9.386,9.386,0,0,1-.444-1.043l-.178-.232h0v-.116a2.631,2.631,0,0,0,.533.579,6.448,6.448,0,0,0,.622,1.043C45.133,145.971,44.955,145.971,44.866,145.739Zm4.178-8.688c-.622-.579-1.333-1.39-1.778-1.506v.116a32.935,32.935,0,0,1-2.311-2.9c1.067.927,2.044,1.738,2.933,2.549a10.908,10.908,0,0,1,1.156,1.158c.178.463.356.811.533,1.274A3.619,3.619,0,0,0,49.044,137.051Zm5.689-63.368a.979.979,0,0,1-.444-.463l.089-.116a5.3,5.3,0,0,1,.711.7A.442.442,0,0,0,54.732,73.683Zm-.444,121.755a5.371,5.371,0,0,1,.444-1.738,1.627,1.627,0,0,1,.267.463A2.319,2.319,0,0,0,54.288,195.438Zm5.867-2.78a.857.857,0,0,1-.178.811c-.356-.116-.711-.348-1.067-.463A5.007,5.007,0,0,0,60.155,192.657ZM59,195.322h0c-.178.232-.178.232-.267.116.089,0,.178-.116.267-.116Zm.711.463v-.232c-.178.116-.267-.116-.267-.232.267,0,.356.232.533.463Q59.843,195.612,59.71,195.785Zm.356,1.854a2.229,2.229,0,0,1,.178-.927,2.766,2.766,0,0,0,.267.579l.178.232A1.193,1.193,0,0,0,60.066,197.639Zm-.089-119.67c.089,0,.089.116.178.116a.451.451,0,0,0,.089.232.63.63,0,0,0-.356-.232S59.888,77.969,59.977,77.969Zm2.578,22.358c-.267-.116-.533-.348-.8-.348h-.089a6.314,6.314,0,0,0-2.044-.7v-.811a7.714,7.714,0,0,0,3.111,1.506A.344.344,0,0,0,62.555,100.328Zm1.422.579h0l-.178.348c-.089-.116-.267-.232-.356-.348l.089-.116h.444v-.348C64.066,100.559,63.977,100.675,63.977,100.907Zm-.089-18.188c-.178-.116-.178-.463-.267-.7a9.3,9.3,0,0,0,.978.7l.444.463C64.6,82.951,64.154,82.951,63.888,82.719ZM69.31,49.587v-.463A12.128,12.128,0,0,0,70.2,50.4h0l-.711-.579v.232c-.267-.232-.444-.348-.711-.579A.9.9,0,0,0,69.31,49.587Zm-3.644,52.479c0-.116-.089-.232-.089-.348a.282.282,0,0,0,.267-.116A1.935,1.935,0,0,1,65.666,102.065Zm1.156,99.165v-.348c.089.116.178.116.267.232A.282.282,0,0,0,66.821,201.23ZM67.977,103.8c.089,0,.178-.116.178-.348l-.267-.232c-.089.232-.178.348-.089.463a9.343,9.343,0,0,1-1.778-.927v-.116c.356,0,.889-.463,1.156-.579.089.348-.356.7-.267,1.158.178,0,.356-.927.533-.927l.533.348a3.65,3.65,0,0,1,.711,1.622h-.356l.089-.348C68.243,103.919,68.066,103.919,67.977,103.8Zm.622,98.7ZM67,85.036c.8.811,1.689,1.506,2.578,2.317A9.959,9.959,0,0,1,67,85.036Zm3.022-34.406.089-.116.267.348A.629.629,0,0,0,70.021,50.629ZM77.665,208.3ZM79.621,99.285H79.8C79.8,99.4,79.71,99.4,79.621,99.285Zm6.667-1.506a3.751,3.751,0,0,0,.622.7,3.473,3.473,0,0,0,.8.579c-1.333-.7-2.756-1.274-4.267-1.969-.089-.116-.089-.463-.178-.7C84.332,96.852,85.31,97.316,86.287,97.779Zm-5.955,1.854h.356c.356.116.711.348,1.067.463,1.067,1.274,2.489,1.622,3.911,2.2h0s-.089,0-.089.116l.356.463c-1.511-.7-3.022-1.506-4.533-2.2A5.142,5.142,0,0,0,80.332,99.632Zm5.067,12.4c-.444-.348-.978-.7-1.422-1.043.533.232,1.067.463,1.511.7Zm2.311,1.622c-.711-.463-1.422-.927-2.044-1.39l.178-.348c.711.348,1.511.7,2.222,1.043A2.579,2.579,0,0,0,87.71,113.65Zm2.311.927L89.043,114a1.088,1.088,0,0,0,.089.579,3.876,3.876,0,0,0-.889-.579,5.583,5.583,0,0,0,.356-.811c.089,0,.089,0,.178.116l-.089.116.444.463-.089-.463c.444.232.8.348,1.244.579A1.691,1.691,0,0,0,90.021,114.577Zm.444-45.18c.089,0,.178.116.267.116a11.363,11.363,0,0,1,1.244,1.158A2.882,2.882,0,0,1,90.465,69.4Zm.8,46.107-.178.348c-.089-.116-.178-.116-.356-.232.267-.463.533-1.043.711-1.043h.089c0,.579,0,.811.178.927Zm2.044,1.158v.811c-.356-.232-.8-.579-1.156-.811a1.873,1.873,0,0,0,.089-.7l-.356-.116a1.318,1.318,0,0,0,.444-.232v.232c.267.116.444.811.8-.348.089.116.267.116.356.232a.282.282,0,0,0,.267-.116h.089A5.789,5.789,0,0,0,93.309,116.662ZM204.863,239.807a1.907,1.907,0,0,1,.533.463c-.356.116-.622.232-.978.348l-.356-.463A1.226,1.226,0,0,0,204.863,239.807Zm4.355-66.612c.533.811,1.156,1.738,1.689,2.549l-.8,1.274c-.622-.811-1.156-1.622-1.689-2.433Zm-15.111-11.353h0c.356-1.622.533-2.317.356-2.78.089-.232.267-.348.356-.579a12.472,12.472,0,0,0,.444-1.738h.978c0,.116-.089.348-.089.463a2.143,2.143,0,0,1,.444-.463,15.694,15.694,0,0,0,2.044-.463,6.57,6.57,0,0,1,.533-.927c.267.116.444.348.711.463-.178.811-.267,1.738-.444,2.78.356,0,.8.116,1.244.116-.622,1.969-1.244,3.939-1.956,5.908a12.367,12.367,0,0,0-1.511-.7,31.1,31.1,0,0,0-3.111-1.969Zm4.711,3.36c-.089,0-.089-.116-.178-.116v-.116Zm-.267,35.681a8.054,8.054,0,0,0-.889-.811c.089,0,.089-.116.178-.232C198.108,200.187,198.285,200.535,198.552,200.883Zm-3.467-5.329a.25.25,0,0,0-.178-.116s.089,0,.089-.116A.452.452,0,0,1,195.085,195.554Zm-5.422-111.56a5.925,5.925,0,0,1-1.867-1.506A21.28,21.28,0,0,1,189.663,83.993Zm-2.4,14.713a6.446,6.446,0,0,1,2.4,1.39.7.7,0,0,1-.089.348,1.809,1.809,0,0,0-1.244-.7,1.1,1.1,0,0,0-.089.463.44.44,0,0,0-.356-.232,3.153,3.153,0,0,0,.356-.579c-.178,0-.356.232-.533.463h-.089a5.315,5.315,0,0,1-.8-.811,1.077,1.077,0,0,0,.533-.232C187.352,98.937,187.263,98.822,187.263,98.706Zm-.978-17.493a2.3,2.3,0,0,1-.889,0c-.178-.116-.178-.579-.267-.7l-.444-.579Zm-2.667-2.085a14.242,14.242,0,0,0-3.111-.927,4.193,4.193,0,0,1,.356-1.043A26.23,26.23,0,0,1,183.619,79.128Zm-4.355-6.6h0q-.133.7.267.7v.116c-.267-.116-.444-.348-.711-.463C179,72.756,179.175,72.524,179.263,72.524Zm1.244,4.286A4.21,4.21,0,0,1,177.4,75.3c-.267-.348-.533-.579-.8-.927C177.93,75.189,179.263,76,180.508,76.811ZM172.152,67.2l.533.348c.267.232.622.579.889.811a4.137,4.137,0,0,0-.444,1.158c.178.348.533,0,.978-.7a23.829,23.829,0,0,1,2.222,2.317s0,.116-.089.116h0a4.661,4.661,0,0,0-3.022-.463,1.8,1.8,0,0,0-.889-.232c.533-1.738-.089-2.085-.8-1.969A9.54,9.54,0,0,0,172.152,67.2Zm5.689,138.669a1.4,1.4,0,0,1-.622-.463l-.533-.7c.444-.232.978-.7,1.156,0A2.55,2.55,0,0,1,177.841,205.864Zm2.044.579c0,.116-.089.232-.089.348-.622-.348-1.422-.579-2.044-.927C178.552,205.516,179.441,206.327,179.886,206.443Zm-3.555-2.317a3.669,3.669,0,0,1-.444-.811,1.175,1.175,0,0,0,1.067-.116A2.066,2.066,0,0,1,176.33,204.126Zm.444,10.658c-1.156-1.274-2.311-2.549-3.644-2.9a4.272,4.272,0,0,1,.178-1.043,1.285,1.285,0,0,0,.444.579c.711.579,1.422,1.274,2.133,1.854A10.768,10.768,0,0,0,176.775,214.784ZM172.6,199.377c.178-.116.444-.116.622.463A3.773,3.773,0,0,1,172.6,199.377ZM170.553,83.761Zm-.889-18.3s-.089,0-.089.116c-.089-.116-.267-.232-.356-.348C169.4,65.226,169.486,65.342,169.664,65.458Zm-2.044,139.711c.356.348.711.811,1.067,1.158a.774.774,0,0,1-.444-.116c-.267-.348-.533-.579-.8-.927C167.53,205.169,167.53,205.169,167.619,205.169Zm-2.578-12.627c.711.348.533.927.267,1.506-.178-.116-.356-.348-.622-.579l.178-.348-.178.348c-.089-.116-.267-.232-.356-.348C164.6,193.121,164.775,192.889,165.042,192.542Zm.178,10.31v.116h-.089l.089-.116ZM163.8,178.177a6.5,6.5,0,0,1,1.067.811c0,.116-.089.348-.089.463a9.251,9.251,0,0,0-1.333-.927C163.53,178.408,163.708,178.292,163.8,178.177Zm-2.489,10.195v.927h-.089a10.28,10.28,0,0,1-.711-1.39A2.855,2.855,0,0,1,161.308,188.371Zm-15.822-27.34c4.089,3.707,8.089,5.1,11.466,10.079-.711,1.39-.711.116-1.511,1.622-.533-.348-.978-.7-1.511-1.043-.533-.463-1.067-.811-1.6-1.274-.356-.348-.8-.579-1.156-.927a17.618,17.618,0,0,1,.8-2.549c-1.422,1.506-.8-1.158-2.044-.348a9.54,9.54,0,0,0-.622,1.39c-1.689-1.39-3.378-2.664-4.978-4.055a3.47,3.47,0,0,0-.267-1.622A8.375,8.375,0,0,0,145.486,161.031Zm11.289,35.217c-.444-.348-.889-.7-1.422-1.043a1.13,1.13,0,0,1,.267-.811c.178.116.356.348.533.463A1.968,1.968,0,0,1,156.775,196.249Zm-12.444-39.967.444.463a18.667,18.667,0,0,0-.8,1.738,2.63,2.63,0,0,0-.533-.579A4.307,4.307,0,0,1,144.331,156.282Zm-1.156,3.244c.089,0,.178.116.178.116v.116l.444.579c-.089.232-.267.348-.356.579-.089-.116-.267-.116-.444-.232a7.833,7.833,0,0,1,.356-.927C143.353,159.641,143.264,159.525,143.175,159.525Zm-.444-.232c-.178.348-.267.7-.444,1.043-1.067-.348-2.222-.7-1.956-2.085Zm-5.422-8.341c1.156,1.738,2.311,3.591,3.555,5.329-.711-.348-1.511-.7-2.133-.927h0c-.089-.927,0-2.433-.356-2.317-2.4.7-2.933-2.085-4.178-3.707A10.041,10.041,0,0,0,137.309,150.953Zm-3.289,1.274c1.333,1.158,2.756,2.317,4.089,3.475h0c.533.463,1.511.579.978,1.854a16.5,16.5,0,0,1-4.267-3.244,6.3,6.3,0,0,1,1.689,1.274c0-.348.089-.7-.089-.811a9.527,9.527,0,0,0-2.4-2.549Zm-1.333-1.158c.356.232.622.579.978.811h-.178c-.178-.116-.444-.348-.622-.463,0,.116.089.232.089.348-.089.116-.178.348-.267.463-.178-.116-.267-.232-.444-.348A2.154,2.154,0,0,0,132.687,151.068Zm-.622.7c-.178-.116-.267-.232-.444-.232C131.887,151.416,132.064,151.416,132.064,151.764Zm-3.111-3.939c.178.116.267.232.444.348a.9.9,0,0,1-.533-.116A.451.451,0,0,1,128.953,147.825Zm-1.778-1.738c.444.463.978.927,1.422,1.39a2.764,2.764,0,0,0-.267.579A1.548,1.548,0,0,1,127,146.782,1.192,1.192,0,0,0,127.176,146.087ZM115.265,27.807a8.722,8.722,0,0,0,4.267,4.4c.089.116.267.116.444.232.089.116.178.232.267.116a9.317,9.317,0,0,0,1.867.579v.348l.267-.348a1.921,1.921,0,0,0,.8.116c-.089.811.533.811-.089,1.854-.622-.579-.889-2.549-2.044-.579a15.375,15.375,0,0,1,2.222,3.244c.711,1.158,1.422,2.085,2.311,1.854-.089-.116.089-.7.267-.7h.622c-.089.348-.178.811-.267,1.158,0,.116-.089.116-.089.232v.116c0,.116-.089.232-.089.348l.089-.116a1.25,1.25,0,0,0,.622.927c-.178.232-.356.116-.622.579a7.866,7.866,0,0,0-.978-.579c-.267-.232-.533-.579-.8-.811a4.11,4.11,0,0,0-1.067-1.274c0,.116,0,.116.089.232a37.122,37.122,0,0,1-4.533-7.183c-.889-1.738-2.756-2.317-4.089-3.939-.444-.463-.8-1.043-1.244-1.506A1.376,1.376,0,0,0,115.265,27.807Zm-1.689,104.146a8.239,8.239,0,0,0-.356-1.622c-1.778-.927-3.555-1.854-5.333-2.664.089.232.178.348.267.579-.978-.7-1.956-1.39-2.844-2.085v-.232l-.089.116c-2.933-2.085-5.867-4.17-8.711-6.372-.533-.348-.978-.7-1.511-1.043h0c.178-.811.267-1.506.356-2.2a.647.647,0,0,0,.444.116.439.439,0,0,1-.356.232.891.891,0,0,0,.711.348c0,1.274.178,1.274,1.333,1.274a24.937,24.937,0,0,0,3.644,3.244h0c.089.116.178.116.356.232a40.012,40.012,0,0,0,7.467,3.939,47.075,47.075,0,0,0,5.689,4.634,24.029,24.029,0,0,1,2.133,1.506c.089.463.267.927.356,1.274-.267-.116-.622-.579-.889-.348.089.463.622,1.043.978.579a3.825,3.825,0,0,0,.356.7l.622.811.089.116C116.687,134.039,115.087,133,113.576,131.954Zm6.667,57.923a.451.451,0,0,0-.089-.232,16.626,16.626,0,0,0-2.133-3.012A7.544,7.544,0,0,1,119.8,188.6a4.627,4.627,0,0,1,2.844.811,2.87,2.87,0,0,0,.622,1.274A9.166,9.166,0,0,0,120.242,189.877Zm3.378-14.6a2.873,2.873,0,0,0-2.756-3.128c-.444-.579-2.4-1.506-4.178-2.433.267-.927.622-.579.889-1.39-.711-.579-1.422-1.274-2.222-1.854h0c2.133,1.506,4.267,2.9,6.4,4.4.8,1.854,1.956,3.012,2.756,4.75A4.625,4.625,0,0,0,123.62,175.28Zm4.089,17.725a.452.452,0,0,1,.089-.232,1.627,1.627,0,0,0,.267.463C127.887,193.121,127.8,193.005,127.709,193.005Zm8.089,6.372c-.178-.232-.356-.579-.533-.811h0a2.317,2.317,0,0,1,1.067,1.158c.089-.116.089-.116.178-.116a10.912,10.912,0,0,1,1.156,1.158A12.393,12.393,0,0,0,135.8,199.377Zm3.644,4.75c.622.232,1.333.463,2.044.7-.089.232-.267.463-.444.927A13.668,13.668,0,0,1,139.442,204.126Zm5.955,4.518a22.339,22.339,0,0,1-4.267-2.78,2.039,2.039,0,0,0,.711-.927c.089,0,.267.116.356.116a1.454,1.454,0,0,1-.178-.579c0-.232,0-.348-.089-.348-.089-.116-.089-.348-.178-.463,1.867,1.738,4.089,3.012,5.689,4.981.178-.116.444-.463.533-.348a.866.866,0,0,0,.089.463C147.264,208.644,146.109,208.992,145.4,208.644Zm-1.156-8.8c1.778,1.274,3.555,2.549,5.155,3.939.533.463.622,1.506,1.244,1.969a9.927,9.927,0,0,1-3.111-1.854,20.593,20.593,0,0,0-2.4-2.78A5.8,5.8,0,0,1,144.242,199.84Zm12.178,15.987a20.824,20.824,0,0,0-3.289-2.085,1.758,1.758,0,0,0-1.422-.927V212.7a6.617,6.617,0,0,0-2.133-1.043,13.482,13.482,0,0,0-1.067-2.433,1.371,1.371,0,0,1,.622.232c.356.232.622.579.978.811.089.232.267.579.356.811.178,0,.267-.116.444-.116a5.037,5.037,0,0,0,1.156.927c1.156.927,2.311,1.854,3.555,2.664.267.232.622.463.889.7A1.6,1.6,0,0,0,156.419,215.827Zm.978-3.591a9.6,9.6,0,0,0-2.667-2.317c-.444-.579-.889-1.274-1.333-1.969,1.689,1.274,3.467,2.665,5.244,4.055a1.82,1.82,0,0,0,.978,1.274C158.819,213.046,158.375,212.12,157.4,212.236Zm12.089-2.2c-1.067-.927-2.222-1.158-3.289-2.317-.089-.116.444-.927.178-.927-.089-.116-.622,1.158-.711.811-.089-.116-.267-.232-.356-.348v-.7c-.622-.463-1.156-.811-1.778-1.274,0-.116.089-.116.089-.232-.089.116-.089.116-.178.116a9.3,9.3,0,0,0-.978-.7c.089.232.178.579.267.811a1.618,1.618,0,0,0-.356-.463s-.089,0-.089-.116c.178-.463.444-.927.622-1.39a.77.77,0,0,0-1.067-.232,7.835,7.835,0,0,0-.356.927c-1.778-1.274-3.644-2.664-5.244-3.939v-.116c.533-.579,1.511.463,1.511-.927-.978-1.274-1.689.116-2.311.348a5.3,5.3,0,0,1-.711-.7s0-.116-.089-.116c.444-.463.978-.232,1.511-.463a31.1,31.1,0,0,1-3.378-1.274.491.491,0,0,0-.711-.348c-.267-.116-.622-.348-.889-.463l.267-.348a19.224,19.224,0,0,1-.533-1.854,15.968,15.968,0,0,0-.533,1.506c-.178-.116-.267-.348-.444-.348s-.267-.116-.444-.232a2.522,2.522,0,0,0,.356-.579c-.089,0-.178-.116-.267-.116.089-1.274-.267-1.854-1.244-1.506l-.267.7c-.533-.463-1.067-.811-1.689-1.274h-.089c-.267-.232-.533-.348-.8-.579.178-.348.356-.811.533-1.158-.089-.232-.444.232-.889.927a17.018,17.018,0,0,0-1.156-1.506v-.579q-.133,0-.267.348c-.267-.232-.444-.579-.711-.811,0-.116.089-.116.089-.232-.178,0-.356-.116-.444-.116a48.4,48.4,0,0,0-6.311-4.866c.267.7.444,1.39.711,2.085a6.5,6.5,0,0,1-1.067-.811c.089-.579-.178-.579-.444-.348a5.641,5.641,0,0,1-.889-.811c0-.116.089-.348,0-.348a.451.451,0,0,0-.089.232c-.267-.232-.622-.579-.889-.811.089-.116.178-.116.267-.232-.711-1.274-1.511-2.433-2.311-3.939a1.964,1.964,0,0,0-1.778.116l-.267-.348h-.622c-.089-.116-.178-.116-.267-.232h.089s.178-.579.089-.579c-.089-.116-.267,0-.444,0,0,.116,0,.232-.089.232a9.312,9.312,0,0,1-.978-.7,4.307,4.307,0,0,0-.889-1.622,18.539,18.539,0,0,1-1.511-2.317,117.7,117.7,0,0,1,11.378,9.384c.444-.116.8-.579,1.244-.811.178.116.444.348.622.463a1.935,1.935,0,0,0-.178-.463h.089a10.168,10.168,0,0,0,1.867,2.78,5.345,5.345,0,0,1,3.111,1.043c-.089,0-.089,0-.178.116-.089.348-.089.7-.178.927.8.7,1.511,1.274,2.311,1.969a6.176,6.176,0,0,1,.089-1.39c.356.348.711.579,1.067.927.711.7,1.422,1.39,2.133,1.969a9.233,9.233,0,0,0,3.911,4.055,11.518,11.518,0,0,1-.533-1.622l.8.348c.178.811-.533,1.622.533,2.317.889,1.043.889-1.274,1.333-.7a2.653,2.653,0,0,1,.356.927,4.823,4.823,0,0,0,.356,1.043h0c.089.116.089.232.178.232l.089.116a4.288,4.288,0,0,0,2.756,1.622l.089-.116a3.754,3.754,0,0,0,1.6-.116c.356.348.711.579,1.067.927A7.093,7.093,0,0,0,163,200.767a1.9,1.9,0,0,1-.178.463c.178-.116.267-.116.444-.232.533.463,1.067.927,1.511,1.39a11.124,11.124,0,0,1-1.067.811c.889,1.158,1.867,2.2,2.756,3.244-.178.116-.267.116-.711,1.043.444-.348.089.463.356.348.267-.7.444-.927.533-1.158.444.463.889,1.043,1.333,1.506.089.116.356,0,.533,0a3.834,3.834,0,0,0,.889.927l.089.116a.451.451,0,0,0-.089.232l.178.232s0-.116.089-.116a.831.831,0,0,0,.356.463C169.575,209.919,169.486,210.15,169.486,210.034Zm.178.232a1,1,0,0,1,.178-.463c.089,0,.178.116.267.116A1.93,1.93,0,0,0,169.664,210.266Zm.889.348a2.342,2.342,0,0,0,.178-.579c.178,0,.444.116.8.116v.811C170.819,211.54,171.175,210.034,170.553,210.614Zm.533,19.578c1.156.811,2.489,1.274,3.644,1.969a7.39,7.39,0,0,1-.356.811c.267-.232.178.811.622-.232a3.293,3.293,0,0,0,.089-.463,4.889,4.889,0,0,1,.711.463l.267.348,1.067,1.39c.089.348.178.7.444.811h.267c.711.811,1.333,1.622,2.044,2.317.356.348.8.7,1.156,1.043a30.641,30.641,0,0,1-2.844-1.274c-.178-.116-.444-.116-.622-.232-1.333-1.274-2.578-2.664-3.911-4.17,0,0,0-.116-.089-.116v.116l-.089-.116a4.752,4.752,0,0,0-.978-1.043,17.519,17.519,0,0,1-1.244-1.39C171.086,230.308,171.086,230.308,171.086,230.192Zm3.111,7.067a1.23,1.23,0,0,1-.8.811,21.069,21.069,0,0,1-1.244-1.738,5.4,5.4,0,0,0,.889-.463,15.418,15.418,0,0,1,1.333,1.39Zm12,13.786a.513.513,0,0,0-.089.348,9.989,9.989,0,0,1-.889-1.158,10.528,10.528,0,0,0-1.067-1.158,4.176,4.176,0,0,0,1.689.116,4.922,4.922,0,0,0-3.289-3.012,2.763,2.763,0,0,0,.267-.579c-.267.232-.267-.927-.8.116v.348h-.267c-.267-.811-.889-.927-1.422-1.158.089.232.089.579.178.811a19.736,19.736,0,0,1-1.689-1.506,1.9,1.9,0,0,1,.622-.927c-.978-1.159-1.867-3.591-3.022-2.317.444.811.978,1.506,1.511,1.39-.178.232-.267.463-.356.579a29.7,29.7,0,0,1-2.4-2.78,6.687,6.687,0,0,1,.444-1.622l1.067,1.043a2.63,2.63,0,0,0,.533.579c0-.116.089-.116.089-.232a3.746,3.746,0,0,0,2.933.579,2.488,2.488,0,0,1,.444,1.622c1.956-.927,2.756.232,3.022,2.317a3.8,3.8,0,0,0,.889,2.2c.978,1.274,1.956,2.549,2.933,3.939C187.086,250.813,186.73,250,186.2,251.044ZM181.308,239l.711.232-.267.463Zm6.844-3.823a11.964,11.964,0,0,0-4.267-2.433c-.444-.232-.978-.348-1.422-.579.267-.811.622-.348.8-1.043,0-.579-.622.579-1.067.7.089,0,.089-.811.089-.811-.089,0-.444.348-.533.232-.356-.116-.356-.579-.711-.7.622-.811.267-1.043.356-1.39a.647.647,0,0,1,.444.116c.178.463.267.927.889.348a1.287,1.287,0,0,0,1.244-.232,10.525,10.525,0,0,1,1.067,1.158c1.333,1.39,2.667,2.9,4.178,4.286C188.6,235.173,188.33,235.289,188.152,235.173ZM187,217.449c-.089-.348-.267-.811-.533-.927a7.342,7.342,0,0,1-1.244-1.274c.267,0,.533-.232.8-.579a9.722,9.722,0,0,1-2.489-2.9c1.067,1.043,2.133,1.969,3.289,2.9C186.019,215.711,187.619,216.522,187,217.449Zm-.089-2.664A17.829,17.829,0,0,0,191,217.333c-.267,1.506-.8,1.043-1.244,1.158a1.467,1.467,0,0,1,.267-.811C188.774,215.016,186.908,217.8,186.908,214.784Zm.978,3.823c-.178-.116-.267-.232-.444-.348a1.628,1.628,0,0,1-.267-.463A2.733,2.733,0,0,0,187.886,218.607Zm3.555,2.317a4.144,4.144,0,0,0-2.044-1.506,3.644,3.644,0,0,0,.267-.927c.444-.348.711.811,1.689,1.274l-.089.232c.356.116.444.579.622.927Zm1.067.116h0c.267-.232.356-.116.444.116C192.863,221.04,192.685,221.04,192.508,221.04Zm4,24.1-.089-.232.178-.232ZM199,226.485a1.541,1.541,0,0,0,1.333-.7,3,3,0,0,1-.889,1.506A5.093,5.093,0,0,1,199,226.485Zm1.333,20.157-.711.116.089-.348.711-.116Zm.533-10.195s0-.116-.089-.116v-.116l.089.116Zm-.356-7.53c-.267-.463-.533-.811-.8-1.274a23.028,23.028,0,0,1,2.489,1.969A3.2,3.2,0,0,1,200.507,228.918Zm1.956,11.932.089-.116c.089.116.178.116.267.232A.442.442,0,0,1,202.463,240.85Zm0-26.992V215.6c-1.867-1.738-3.733-3.36-5.511-5.329-.889,1.158-1.333-1.274-2.222.116,0-.348.178-.348.444-.579-2.133-1.043-2.311-1.043-2.933-4.4-5.778-7.3-12.355-12.511-18.666-18.651l1.244-1.622c1.422.7,2.844,1.506,4.267,2.2,2.844,1.506,5.689,2.9,8.444,4.518.533,1.043,1.156,1.854,1.867,1.969v-.927c1.6,1.043,3.2,2.085,4.711,3.244.178.116.444-.116.711-.463.267.116.444.348.711.463-.089.116-.178.348-.267.463l2.489,3.475a5.948,5.948,0,0,0-2.933-1.506c-.267-2.317-2.667-3.36-3.2-1.738,2.222.7,3.911,3.707,5.778,5.908-.267-.116-.444-.232-.711-.348-1.067-.463-2.311-.579-3.467-1.043-1.244,4.75.178,5.676,1.067,7.414.444-.7.8-1.39,1.6-2.549.711,2.9,4.978.232,3.911,6.14,3.378-1.969,4.622-.463,4.622,2.78A3.219,3.219,0,0,0,202.463,213.857Zm-.533-9.036h0l1.244.348-.622.927Zm-1.067-38.809,1.244-3.591c-.089,3.707,1.6,4.055,2.933,4.4a18.261,18.261,0,0,0,1.156,1.622l-.8.348A32.509,32.509,0,0,1,200.863,166.013Zm4.622,51.436a.963.963,0,0,1-1.156,1.043l.178-.463h-.089c0-.232.089-.348.089-.579.622,0,1.689-.811,2.044-.116,1.333,2.665,4.267,3.36,5.422,6.372h0A48.574,48.574,0,0,0,205.485,217.449Zm27.022,4.055h-1.244l.356-.7h1.244Zm5.511-23.054.089-.463.267-.116Zm1.067,1.043c-.178.116-.356.463-.444.463s0-.232,0-.348a2.142,2.142,0,0,0,.444-.463S239,199.377,239.085,199.492ZM64.332,48.312c-.622,1.506-1.333,4.518-.178,2.317C64.421,49.587,64.777,48.428,64.332,48.312Zm-9.155-4.518h0l.622-.7V41.13l-.889,1.043V43.1C54.555,44.026,54.732,44.721,55.177,43.794Zm165.686,86.074c.089,0,.267-.232.622-.811-.267-.927.089-3.36-1.778-1.854C220.329,128.015,219.885,129.868,220.863,129.868Zm-6.222-4.171c.089-.579.444-2.085-.711-.116C214.2,125.466,214.107,126.625,214.641,125.7ZM67.71,47.617c-2.133-4.518-5.155-6.256-9.689-6.719-1.422,4.634,2.933-.811,1.778,3.707,0-.348-.622-1.158-1.244.348,1.156.232,1.333,3.591,3.378.579-1.333,3.012.089,3.128.622,2.9-.444-.232.089-.811.711-2.549,1.244,0-1.156,4.981.089,4.286.978-1.969.089-1.274.889-3.012C65.577,46.343,65.843,50.05,67.71,47.617ZM80.51,1.163C80.243-.691,78.021,0,77.221.7,77.932,1.047,79.088,3.132,80.51,1.163ZM215.618,130.679c-1.422-2.9-3.378-7.183-6.133-8.689C210.73,124.424,213.041,131.027,215.618,130.679Zm8,12.627c-.178.463,0,1.854.978.116C224.24,143.538,224.329,142.38,223.618,143.307Zm1.6-8.341c.978-.348.444,1.738,1.867-.232C226.818,134.039,226.64,133.344,225.218,134.966Zm-8.978-15.06c-.444-.232-.444-1.506-1.778.927C215.174,120.253,215.085,122.107,216.241,119.906Zm-7.733,1.043c.444,0,.444,1.274,1.156.463C209.841,120.717,209.4,119.558,208.507,120.948Zm-35.2,144.693c.533-.232.711.7,1.6-.927C174.375,265.062,174.464,262.976,173.308,265.641Zm-12.8-62.9c.356.348.267,1.274.711.811C161.308,202.157,161.753,200.535,160.508,202.736Zm11.822,60.935a1.491,1.491,0,0,0-1.778.811c.089.927,1.244,2.549,2.667.463C173.219,264.135,172.775,263.672,172.33,263.672Zm2.311,1.969c.533-1.043.356,2.085,1.778-.811C175.886,264.946,175.53,263.787,174.641,265.641ZM40.866,30.472c.444.116,1.778.463,2.222-.463C42.91,28.966,41.222,27,39.622,28.85A1.779,1.779,0,0,0,40.866,30.472Zm-1.422-2.317c-.622.232-.978-.927-1.956.579C38.2,28.618,38.288,30.819,39.444,28.155ZM30.111,47.5c.089-.463-.178-1.854-.978,0C29.488,47.386,29.488,48.544,30.111,47.5Zm7.644-19.694c-.533,1.043-.622-2.433-2.133.463C36.333,28.155,36.866,29.545,37.755,27.807Zm180.974,56.07c-1.6-.7.533-7.53-2.667-4.17C216.241,81.908,217.574,83.646,218.729,83.877Zm1.156,1.854c-.356.927.267,1.158.711,1.043,0-.811.178-2.317-.622-1.622.089.463-.444.348-.444.811C219.707,85.731,219.8,85.615,219.885,85.731ZM215.352,76c-.889-1.738-1.778-3.591-3.378-3.128.356-1.854-.978-1.969-1.689-.579C212.685,72.177,212.063,78.664,215.352,76ZM124.687,11.01c0-.579-.178-.116-.444.463C124.42,12.4,124.064,11.126,124.687,11.01Zm35.377,11.932a21.361,21.361,0,0,0,4.178,1.969,12.843,12.843,0,0,1,4.178,2.549l.8,1.39c1.511-.7,2.578.811,3.911,1.274.267-.463.356-.232.711-.811a3.535,3.535,0,0,0-4.178-1.738,8.928,8.928,0,0,0-4-4.4,12.879,12.879,0,0,0-5.155-1.506c-.356-.348,0-2.317-.978-.232C158.819,22.015,159.886,22.826,160.064,22.942Zm13.422,7.414c.444.927.978,1.274,1.6.811-.089-.463.267-.348.533-.463C174.908,30.7,174.641,28.5,173.486,30.356ZM125.22,11.126a18.315,18.315,0,0,0-.622,2.433A4.957,4.957,0,0,0,125.22,11.126Zm84.265,59.2c.533-1.622.444-3.591-.889-2.9C208.685,68.47,208.6,70.555,209.485,70.323Zm-1.067-2.549c-.533-.463-.533-3.475-2.222-2.664C206.641,65.689,207,68.354,208.418,67.775Zm-30.4-34.87c-.267-.7-.622-1.043-1.156-.7.089.232-.178.463-.444.7C176.864,33.136,178.019,33.252,178.019,32.9Zm27.2,30c.178-.811-.711-1.043-1.333-.463C203.707,63.257,204.419,63.836,205.219,62.909ZM154.642,271.317c.356-.579.622-1.506.978-2.2C154.908,269.927,155,270.507,154.642,271.317Zm.622.348c-.089.579.178.232.533-.232C155.708,270.275,155.886,271.665,155.264,271.665Zm-36.355-17.956c-2.222-1.622-6.4-2.2-8.711-4.4l-.889-1.274c-1.511.811-2.667-.7-4-1.043-.267.463-.356.348-.622.927a3.813,3.813,0,0,0,4.355,1.506,8.8,8.8,0,0,0,4.267,4.171,13.264,13.264,0,0,0,5.244,1.506c.356.348.089,2.317.978.348C120.242,254.751,119.176,253.825,118.909,253.709ZM61.31,217.1c-.089,1.738.533,3.591,1.6,2.317C62.643,218.607,62.11,216.522,61.31,217.1Zm-13.244-8.109c1.778-.232,2.044,7.182,3.911,2.433C51.177,209.455,49.221,208.528,48.066,208.992Zm55.021,37.187c.089.463-.267.348-.444.579.711-.116,1.244,1.969,2.222.116C104.332,245.947,103.709,245.715,103.087,246.179ZM46.555,207.486c-.089.232-.178.463-.267.232,0-.927-.711-.927-1.067-.579.267.7.622,2.2,1.156,1.158C46.288,208.065,46.733,207.833,46.555,207.486Zm7.378,7.067c1.422,1.158,2.844,2.433,4.267,1.39.178,1.854,1.511,1.39,1.778-.232C57.755,216.869,56.244,210.5,53.932,214.552Zm9.155,4.518c.711.232,1.422,3.012,2.933,1.622C65.4,220.345,64.243,217.912,63.088,219.071ZM99.976,244.9c.356.579.8.927,1.244.579-.089-.232.089-.463.356-.7C101.132,244.441,99.976,244.557,99.976,244.9ZM67.532,222.43c0,.811.889.811,1.422,0C68.866,221.5,67.977,221.156,67.532,222.43ZM30.555,181.3c.444-.7.978,1.39,1.422-.579C31.355,181.536,30.822,179.451,30.555,181.3Zm6.489-4.055c1.156,0,1.689,1.158,2.667.811C39.177,177.6,37.933,175.628,37.044,177.25Zm11.911,5.329c-.8.232-1.6-2.085-2.311-.7A1.363,1.363,0,0,0,48.955,182.579Zm-14.578-.463c.444,0,.889.116,1.244-.232C35.355,180.957,34.733,181.3,34.377,182.115Zm-4.622,4.634c.533.116.356,1.043.889,1.274C31.177,186.865,29.933,186.17,29.755,186.749Zm1.156-2.433c.622.579,1.244,1.043,1.778.579C31.8,184.9,31.622,183.158,30.911,184.316Zm4.622.116c.178,1.043.711-.463,1.156-.348a12.777,12.777,0,0,0,2.4.348h.356v.463a1.2,1.2,0,0,1-1.6,0,5.775,5.775,0,0,1-.356,1.158c3.111.116,5.689,4.866,8.8,3.012-2.222-1.738-4.8-1.274-5.6-4.75.178-.232.622.7,1.067-.116.267.7.978.811,1.333-.232-.533-1.043-1.689-1.39-3.022-1.506-1.244-.116-2.578-.116-3.289-.7C36.422,182.81,35.888,182.926,35.533,184.432Zm53.51-70.551h0l.089.116-.089-.116ZM39,57.58l.089.116.089-.232ZM148.331,165.318c-.444-.232-.889-.463-1.422-.7l-.178.348c.444.232.978.463,1.422.7ZM63.888,100.791Zm28.355,15.06Zm56.8,48.192c-.267-.116-.533-.348-.8-.463l-.178.348c.267.116.533.348.8.463ZM116.42,132.417l-.267-.348-.178.232.356.348Zm63.91,111.908-.089.579h.089v-.579Zm-21.777-45.644.533.7-.178-1.158Zm.533.7v.116l.089.116v-.116Zm35.377,54.68-.178.116h.089Zm.889-.116-.089-.116-.089.232Zm-36.177-53.521.267-.348-.267-.463ZM50.555,168.214l-.356-.232C49.844,168.445,50.466,168.909,50.555,168.214Zm-23.022-18.3c0,.579.444,1.39.889.7C28.066,150.605,27.888,149.794,27.533,149.91Zm25.6,19.462c-.267-.116-.533.116-.8.463C52.51,169.951,52.777,169.951,53.132,169.372Zm178.841-39.851c-.178-.116-.356-.348-.622-.232C231.174,129.868,231.529,129.868,231.974,129.521Zm-15.289-4.981c.178-.463-.267-.463-.711.116.356-.579.089-.7-.267-.232C215.352,125.35,216.241,124.771,216.685,124.54Zm16,6.487c.533-.232.178,1.043.8.232C233.129,131.374,233.485,130.216,232.685,131.027Zm-15.378-5.677c-.089-.116-.356.232-.533.348.089.116-.178.463,0,.463C216.863,126.046,217.129,125.582,217.307,125.35Zm.8,2.317c0,.232.089.232.356,0C218.552,127.436,218.463,127.2,218.107,127.667Zm13.244,0a4.663,4.663,0,0,0-2.311-1.622c.089-.463-.178-.811-.711-.348,0,1.39,2.044,2.085,2.4,3.128.444-.348.711-.232,1.244-.927C232.24,127.32,231.529,128.015,231.351,127.667Zm-12.266-1.738c.089.232,0,1.506.889.348C219.8,126.046,219.707,125.35,219.085,125.93Zm2.489.811c.178,0,.533-.463.8-.7C222.64,125.466,221.84,126.393,221.574,126.741Zm-53.955,81.788c.178,0,.356-.232.622-.463C168.153,207.949,167.975,207.949,167.619,208.528Zm72.621,7.53c-.444-.348-.8-.811-1.244-.7A.891.891,0,0,0,240.24,216.058Zm2.133,2.664c.711,0,.889,1.622,1.422.7C243.262,219.418,243.085,217.8,242.373,218.723Z" transform="translate(2450.824 -1788.968)"/>
</svg>
