<svg xmlns="http://www.w3.org/2000/svg" viewBox="2809 -2536.393 20 23.264">
  <defs>
    <style>
      .cls-1 {
        fill: #a4714e;
      }
    </style>
  </defs>
  <g id="avatar" transform="translate(2825.927 -2567.393)">
    <g id="Group_662" data-name="Group 662" transform="translate(-16.927 31)">
      <path id="Path_2334" data-name="Path 2334" class="cls-1" d="M142.078,12.536h.156a4.515,4.515,0,0,0,3.433-1.469c1.875-2.091,1.563-5.675,1.529-6.017a4.906,4.906,0,0,0-2.361-4.37A5.458,5.458,0,0,0,142.215,0h-.083a5.469,5.469,0,0,0-2.62.66,4.909,4.909,0,0,0-2.391,4.389c-.034.342-.346,3.926,1.529,6.017A4.5,4.5,0,0,0,142.078,12.536Zm-3.657-7.366c0-.014,0-.029,0-.039.161-3.454,2.639-3.825,3.7-3.825h.058c1.315.029,3.55.559,3.7,3.825a.093.093,0,0,0,0,.039c0,.034.346,3.31-1.2,5.034a3.208,3.208,0,0,1-2.508,1.031h-.049a3.2,3.2,0,0,1-2.5-1.031C138.086,8.489,138.417,5.2,138.422,5.169Z" transform="translate(-132.163)"/>
      <path id="Path_2335" data-name="Path 2335" class="cls-1" d="M56.071,265.235v-.014c0-.039,0-.077,0-.12-.029-.954-.093-3.184-2.206-3.9l-.049-.014a14.112,14.112,0,0,1-4.041-1.821.661.661,0,0,0-.915.159.645.645,0,0,0,.161.906,15.237,15.237,0,0,0,4.445,2.009c1.134.4,1.261,1.6,1.3,2.7a.957.957,0,0,0,0,.12,8.655,8.655,0,0,1-.1,1.489,18.069,18.069,0,0,1-8.584,1.975,18.173,18.173,0,0,1-8.589-1.98,8.193,8.193,0,0,1-.1-1.489c0-.039,0-.077,0-.12.034-1.1.161-2.3,1.3-2.7a15.379,15.379,0,0,0,4.445-2.009.645.645,0,0,0,.161-.906.661.661,0,0,0-.915-.159,13.959,13.959,0,0,1-4.041,1.821l-.049.014c-2.113.718-2.176,2.948-2.206,3.9a.957.957,0,0,1,0,.12v.014a7.313,7.313,0,0,0,.248,2.182.619.619,0,0,0,.253.3,18.563,18.563,0,0,0,9.5,2.3,18.619,18.619,0,0,0,9.5-2.3.646.646,0,0,0,.253-.3A7.672,7.672,0,0,0,56.071,265.235Z" transform="translate(-36.073 -246.755)"/>
    </g>
  </g>
</svg>
