<svg xmlns="http://www.w3.org/2000/svg" viewBox="4549.476 38.5 19.975 24.706">
  <defs>
    <style>
      .cls-1 {
        fill: #a4714e;
        stroke: #a4714e;
      }
    </style>
  </defs>
  <path id="Path_18" data-name="Path 18" class="cls-1" d="M67.77,20.492,66.578,7.066l-.165-1.86a.653.653,0,0,0-.65-.6H62.971a4.839,4.839,0,0,0-1.66-3.5A4.468,4.468,0,0,0,58.287,0,4.687,4.687,0,0,0,53.6,4.61H50.812a.65.65,0,0,0-.65.6L48.8,20.492c0,.019,0,.039,0,.058a3.378,3.378,0,0,0,3.558,3.156H64.216a3.378,3.378,0,0,0,3.558-3.156A.236.236,0,0,0,67.77,20.492ZM58.287,1.309a3.378,3.378,0,0,1,3.374,3.3H54.913A3.378,3.378,0,0,1,58.287,1.309ZM64.216,22.4H52.358a2.089,2.089,0,0,1-2.249-1.818l1.3-14.655H53.6V7.912a.654.654,0,1,0,1.309,0V5.924h6.753V7.912a.654.654,0,1,0,1.309,0V5.924h2.191l1.3,14.655A2.092,2.092,0,0,1,64.216,22.4Z" transform="translate(4501.176 39)"/>
</svg>
