<svg xmlns="http://www.w3.org/2000/svg" viewBox="4499.476 52.5 19.975 24.706">
  <defs>
    <style>
      .cls-1 {
        fill: #fff;
        stroke: #fff;
      }
    </style>
  </defs>
  <g id="shopping-bag" transform="translate(4451.176 53)">
    <path id="Path_18" data-name="Path 18" class="cls-1" d="M67.77,20.492,66.413,5.207a.653.653,0,0,0-.65-.6H62.971a4.684,4.684,0,0,0-9.366,0H50.812a.65.65,0,0,0-.65.6L48.8,20.492c0,.019,0,.039,0,.058a3.378,3.378,0,0,0,3.558,3.156H64.216a3.378,3.378,0,0,0,3.558-3.156A.236.236,0,0,0,67.77,20.492ZM58.287,1.309a3.378,3.378,0,0,1,3.374,3.3H54.913A3.378,3.378,0,0,1,58.287,1.309ZM64.216,22.4H52.358a2.089,2.089,0,0,1-2.249-1.818l1.3-14.655H53.6V7.912a.654.654,0,1,0,1.309,0V5.924h6.753V7.912a.654.654,0,1,0,1.309,0V5.924h2.191l1.3,14.655A2.092,2.092,0,0,1,64.216,22.4Z" transform="translate(0)"/>
  </g>
</svg>
