<svg xmlns="http://www.w3.org/2000/svg" viewBox="2925 -2564.393 15 18.74">
  <defs>
    <style>
      .cls-1 {
        fill: #312821;
      }
    </style>
  </defs>
  <g id="shopping-bag" transform="translate(2876.2 -2564.393)">
    <path id="Path_18" data-name="Path 18" class="cls-1" d="M63.8,16.2,62.723,4.116a.516.516,0,0,0-.514-.471H60a3.7,3.7,0,0,0-7.4,0H50.39a.514.514,0,0,0-.514.471L48.8,16.2c0,.015,0,.031,0,.046a2.671,2.671,0,0,0,2.813,2.495h9.374A2.671,2.671,0,0,0,63.8,16.246.187.187,0,0,0,63.8,16.2ZM56.3,1.035a2.67,2.67,0,0,1,2.667,2.61H53.633A2.67,2.67,0,0,1,56.3,1.035Zm4.687,16.671H51.613a1.651,1.651,0,0,1-1.778-1.437L50.862,4.683h1.732V6.254a.517.517,0,1,0,1.035,0V4.683h5.339V6.254a.517.517,0,1,0,1.035,0V4.683h1.732l1.031,11.585A1.654,1.654,0,0,1,60.987,17.706Z" transform="translate(0)"/>
  </g>
</svg>
