<svg xmlns="http://www.w3.org/2000/svg" viewBox="2879 -323 100.902 12">
  <defs>
    <style>
      .cls-1, .cls-20 {
        fill: #fefefe;
      }

      .cls-1, .cls-10, .cls-11, .cls-12, .cls-13, .cls-14, .cls-15, .cls-16, .cls-17, .cls-18, .cls-19, .cls-2, .cls-3, .cls-4, .cls-5, .cls-6, .cls-7, .cls-8, .cls-9 {
        fill-rule: evenodd;
      }

      .cls-2 {
        fill: #4dc8f4;
      }

      .cls-3 {
        fill: #04c1f3;
      }

      .cls-4 {
        fill: #00bbf1;
      }

      .cls-5 {
        fill: #00b5f0;
      }

      .cls-6 {
        fill: #00afef;
      }

      .cls-7 {
        fill: #71d0f6;
      }

      .cls-8 {
        fill: #ffdd82;
      }

      .cls-9 {
        fill: #ffd86e;
      }

      .cls-10 {
        fill: #ffd457;
      }

      .cls-11 {
        fill: #ffd03f;
      }

      .cls-12 {
        fill: #ffcc29;
      }

      .cls-13 {
        fill: #ffe295;
      }

      .cls-14 {
        fill: #c9df8c;
      }

      .cls-15 {
        fill: #c1db79;
      }

      .cls-16 {
        fill: #b8d666;
      }

      .cls-17 {
        fill: #b0d353;
      }

      .cls-18 {
        fill: #a8cf45;
      }

      .cls-19 {
        fill: #d1e49d;
      }
    </style>
  </defs>
  <g id="mobility" transform="translate(1500.003 -2330)">
    <g id="MOBILITY-FINAL-LOGO-white" transform="translate(1378.997 2007)">
      <path id="Path_235" data-name="Path 235" class="cls-1" d="M5.179,6Zm11.141.447L18.146,7.49l2.608,1.49-2.608,1.49-2.608,1.49-2.571-1.49L10.359,8.98v-6l2.608-1.49L15.575,0l2.571,1.49,2.608,1.528h0L23.325,1.49,25.934,0,28.5,1.528l2.608,1.49V8.98L28.5,10.508,25.934,12l-2.609-1.53L20.754,8.98h0L18.146,7.49Zm-.782,5.515V8.98l.037-1.49-.037,1.49ZM18.146,4.51l2.608-1.49h0ZM15.575,6,12.967,4.51,10.359,2.981l2.608,1.528Zm10.88.3L28.5,7.489l2.608,1.49L28.5,7.489Zm-.522-1.789ZM5.179,6,7.787,7.49l2.571,1.49L7.788,7.489Zm5.18,2.98L7.788,10.47,5.18,11.96,2.608,10.47,0,8.98v-6L2.608,1.49,5.179,0,7.788,1.49l2.571,1.49ZM6.483,5.254l1.3-.745,2.571-1.528L7.788,4.509Z"/>
      <path id="Path_236" data-name="Path 236" class="cls-2" d="M139,161l2.608,1.49,2.571,1.49-2.571,1.49L139,166.962Z" transform="translate(-133.821 -155.001)"/>
      <path id="Path_237" data-name="Path 237" class="cls-3" d="M139,83.018l2.608-1.49L144.179,80v6l-2.571-1.49Z" transform="translate(-133.821 -77.019)"/>
      <path id="Path_238" data-name="Path 238" class="cls-4" d="M139,6V0l2.608,1.49,2.571,1.49-2.571,1.528Z" transform="translate(-133.821)"/>
      <path id="Path_239" data-name="Path 239" class="cls-5" d="M5.179,6,2.608,4.471,0,2.981,2.608,1.49,5.179,0Z"/>
      <path id="Path_240" data-name="Path 240" class="cls-6" d="M5.179,83.018l-2.571,1.49L0,86V80l2.608,1.49Z" transform="translate(0 -77.019)"/>
      <path id="Path_241" data-name="Path 241" class="cls-7" d="M5.179,161v5.962l-2.571-1.49L0,163.981l2.608-1.49Z" transform="translate(0 -155.001)"/>
      <path id="Path_242" data-name="Path 242" class="cls-8" d="M696,161l2.571,1.49,2.608,1.49-2.608,1.528L696,167Z" transform="translate(-670.066 -155.001)"/>
      <path id="Path_243" data-name="Path 243" class="cls-9" d="M696,83.981l2.571-1.49L701.179,81v5.962l-2.608-1.49Z" transform="translate(-670.066 -77.982)"/>
      <path id="Path_244" data-name="Path 244" class="cls-10" d="M696,6V0l2.571,1.528,2.608,1.49-2.608,1.49Z" transform="translate(-670.066)"/>
      <path id="Path_245" data-name="Path 245" class="cls-11" d="M562.179,6l-2.608-1.49L557,3.018l2.571-1.528L562.179,0Z" transform="translate(-536.246)"/>
      <path id="Path_246" data-name="Path 246" class="cls-12" d="M562.179,83.981l-2.608,1.49L557,86.962V81l2.571,1.49Z" transform="translate(-536.246 -77.982)"/>
      <path id="Path_247" data-name="Path 247" class="cls-13" d="M562.179,161v6l-2.608-1.528L557,163.981l2.571-1.49Z" transform="translate(-536.246 -155.001)"/>
      <path id="Path_248" data-name="Path 248" class="cls-14" d="M417.037,161l2.571,1.49,2.608,1.49-2.608,1.49L417,166.962v-2.981Z" transform="translate(-401.462 -155.001)"/>
      <path id="Path_249" data-name="Path 249" class="cls-15" d="M418,83.981l2.571-1.49L423.179,81v5.962l-2.608-1.49Z" transform="translate(-402.425 -77.982)"/>
      <path id="Path_250" data-name="Path 250" class="cls-16" d="M418,6V0l2.571,1.49,2.608,1.528-2.608,1.49Z" transform="translate(-402.425)"/>
      <path id="Path_251" data-name="Path 251" class="cls-17" d="M283.217,6l-2.608-1.49L278,2.981l2.608-1.49L283.217,0Z" transform="translate(-267.641)"/>
      <path id="Path_252" data-name="Path 252" class="cls-18" d="M283.217,83.018l-2.608,1.49L278,86V80l2.608,1.528Z" transform="translate(-267.641 -77.019)"/>
      <path id="Path_253" data-name="Path 253" class="cls-19" d="M283.217,161l-.037,2.981v2.981l-2.571-1.49L278,163.981l2.608-1.49Z" transform="translate(-267.641 -155.001)"/>
      <path id="Path_254" data-name="Path 254" class="cls-20" d="M965,36.1V26.075h1.938l3.391,7.6,3.354-7.6h1.826V36.1h-1.714V29.093l-2.72,7H969.51l-2.795-7.005V36.1Zm14.2-5.067c0,2.347,1.043,3.5,3.13,3.5,2.012,0,3.018-1.155,3.018-3.5,0-2.273-1.006-3.428-3.018-3.428-2.09,0-3.13,1.152-3.13,3.425Zm-1.937.075c0-3.428,1.714-5.1,5.068-5.1,3.279,0,4.956,1.677,4.956,5.1,0,3.353-1.677,5.067-4.956,5.067-3.209,0-4.923-1.717-5.072-5.075Zm11.77,4.992V26.075h4.7c1.9,0,2.869.745,2.869,2.31a2.546,2.546,0,0,1-1.863,2.459,2.146,2.146,0,0,1,1.975,2.273c0,1.975-1.043,2.981-3.13,2.981Zm4.471-1.639a1.087,1.087,0,0,0,1.23-1.23c0-1.043-.6-1.565-1.826-1.565h-.559v-1.23c1.528-.224,2.31-.894,2.31-1.938,0-.559-.373-.82-1.043-.82H990.9v6.781Zm6.632-8.384V36.1H998.31V26.075Zm3.987,0v8.384h3.987V36.1h-5.85V26.075Zm7.6,0V36.1h-1.863V26.075Zm8.645,0v1.6H1017.5V36.1h-1.863V27.677h-2.869v-1.6Zm.186,0h2.012l2.8,4.807,2.646-4.807h1.938l-3.689,6.521v3.5h-1.863V32.6Z" transform="translate(-929.043 -25.031)"/>
    </g>
  </g>
</svg>
